<?xml version="1.0" standalone="no"?>
<!DOCTYPE svg PUBLIC "-//W3C//DTD SVG 20010904//EN"
 "http://www.w3.org/TR/2001/REC-SVG-20010904/DTD/svg10.dtd">
<svg version="1.0" xmlns="http://www.w3.org/2000/svg"
 width="16.000000pt" height="16.000000pt" viewBox="0 0 16.000000 16.000000"
 preserveAspectRatio="xMidYMid meet">
<metadata>
Created by potrace 1.11, written by Peter Selinger 2001-2013
</metadata>
<g transform="translate(0.000000,16.000000) scale(0.000781,-0.000781)"
fill="#000000" stroke="none">
<path d="M10008 20185 c-2 -2 -30 -6 -63 -10 -33 -3 -73 -7 -90 -9 -16 -3 -52
-7 -80 -11 -27 -4 -52 -8 -55 -10 -3 -2 -23 -6 -45 -9 -33 -5 -100 -21 -175
-40 -8 -2 -46 -12 -85 -22 -38 -9 -73 -22 -77 -28 -4 -6 -8 -7 -8 -2 0 5 -7 3
-15 -4 -8 -7 -15 -10 -15 -7 0 3 -24 -4 -52 -15 -29 -11 -69 -25 -88 -31 -19
-6 -38 -15 -41 -20 -3 -5 -10 -8 -15 -8 -5 1 -31 -8 -59 -20 -27 -12 -52 -21
-54 -19 -2 1 -7 -2 -10 -7 -3 -4 -43 -26 -88 -48 -45 -22 -79 -44 -76 -50 4
-5 3 -7 -2 -3 -7 7 -117 -50 -123 -64 -2 -4 -9 -8 -16 -8 -8 0 -25 -9 -40 -21
-14 -11 -26 -18 -26 -14 0 4 -12 -3 -26 -14 -15 -12 -33 -21 -40 -21 -8 0 -14
-4 -14 -10 0 -5 -5 -10 -11 -10 -6 0 -22 -9 -36 -20 -14 -11 -29 -17 -34 -14
-5 3 -9 1 -9 -5 0 -5 -10 -13 -22 -17 -13 -4 -25 -10 -28 -14 -3 -4 -40 -26
-82 -49 -43 -24 -80 -47 -84 -52 -3 -5 -10 -7 -15 -4 -5 4 -9 2 -9 -3 0 -6
-11 -13 -25 -16 -14 -4 -25 -11 -25 -16 0 -6 -4 -10 -9 -10 -4 0 -48 -23 -97
-51 -124 -72 -153 -88 -204 -117 -25 -13 -52 -30 -60 -37 -8 -7 -19 -14 -25
-16 -40 -15 -185 -103 -185 -111 0 -6 -3 -8 -7 -5 -3 4 -20 -2 -37 -12 -67
-41 -102 -61 -121 -70 -11 -5 -37 -21 -58 -35 -21 -14 -40 -26 -43 -26 -3 0
-43 -22 -90 -50 -47 -27 -87 -50 -89 -50 -3 0 -29 -16 -59 -35 -30 -19 -58
-35 -61 -35 -4 0 -21 -10 -38 -22 -18 -13 -34 -23 -37 -24 -14 -2 -60 -28 -60
-35 0 -4 -12 -10 -27 -14 -15 -3 -35 -15 -44 -26 -10 -11 -20 -19 -24 -18 -11
3 -105 -52 -105 -61 0 -5 -7 -7 -15 -4 -8 4 -15 2 -15 -4 0 -5 -8 -12 -17 -15
-27 -9 -107 -58 -115 -71 -4 -6 -8 -8 -8 -3 0 4 -18 -4 -40 -18 -22 -14 -44
-25 -50 -25 -5 0 -10 -4 -10 -10 0 -5 -9 -10 -19 -10 -11 0 -21 -4 -23 -8 -1
-4 -37 -27 -78 -51 -41 -24 -97 -57 -125 -73 -27 -16 -58 -32 -67 -35 -10 -3
-18 -9 -18 -14 0 -5 -6 -9 -12 -9 -7 0 -41 -18 -76 -40 -34 -22 -65 -40 -67
-40 -3 0 -49 -26 -102 -58 -54 -32 -105 -61 -113 -65 -8 -4 -31 -17 -50 -28
-19 -12 -98 -58 -175 -102 -77 -44 -143 -86 -147 -91 -4 -6 -8 -7 -8 -2 0 5
-6 4 -12 -2 -11 -8 -141 -85 -244 -143 -17 -9 -42 -23 -55 -31 -13 -7 -27 -17
-31 -23 -4 -5 -8 -6 -8 -2 0 4 -20 -6 -44 -23 -25 -16 -47 -30 -50 -30 -5 0
-129 -72 -136 -80 -3 -3 -35 -21 -72 -40 -38 -19 -68 -38 -68 -42 0 -5 -8 -8
-17 -8 -21 -1 -55 -24 -48 -33 3 -4 2 -5 -2 -2 -3 3 -12 0 -20 -6 -7 -6 -13
-8 -13 -3 0 5 -4 4 -8 -2 -6 -9 -44 -31 -172 -102 -25 -13 -52 -30 -60 -36 -8
-7 -36 -23 -63 -37 -26 -13 -47 -27 -47 -31 0 -5 -9 -8 -19 -8 -11 0 -23 -5
-26 -10 -4 -6 -25 -20 -48 -31 -23 -12 -44 -24 -47 -28 -3 -3 -31 -19 -62 -35
-32 -16 -58 -33 -58 -38 0 -5 -5 -6 -10 -3 -5 3 -10 2 -10 -2 0 -5 -12 -14
-27 -20 -16 -7 -50 -25 -78 -41 -27 -16 -95 -55 -150 -87 -55 -32 -102 -62
-103 -67 -2 -4 -7 -6 -12 -3 -5 3 -14 -1 -22 -8 -7 -7 -26 -20 -43 -28 -16 -9
-75 -42 -130 -74 -55 -32 -113 -66 -130 -74 -16 -9 -32 -18 -35 -21 -3 -3 -25
-16 -50 -29 -25 -14 -47 -27 -50 -31 -3 -3 -22 -14 -42 -23 -21 -10 -38 -22
-38 -28 0 -6 -3 -8 -7 -6 -5 3 -25 -5 -45 -16 -20 -12 -83 -48 -140 -81 -57
-32 -117 -69 -135 -82 -17 -13 -35 -24 -40 -24 -5 0 -23 -13 -41 -30 -18 -16
-36 -29 -40 -29 -7 0 -113 -75 -136 -96 -6 -5 -38 -32 -71 -60 -84 -69 -245
-222 -245 -231 0 -2 -17 -21 -38 -42 -72 -70 -316 -392 -297 -392 3 0 -5 -12
-18 -26 -27 -29 -175 -311 -207 -394 -11 -30 -25 -64 -30 -75 -25 -55 -39 -98
-34 -106 3 -5 1 -9 -3 -9 -5 0 -14 -17 -20 -37 -6 -21 -21 -72 -33 -113 -12
-41 -24 -86 -26 -100 -3 -14 -7 -33 -10 -42 -8 -27 -15 -62 -18 -89 -2 -14 -6
-30 -9 -36 -4 -6 -9 -28 -11 -49 -2 -22 -7 -55 -10 -74 -4 -19 -8 -60 -11 -90
-2 -30 -5 -55 -5 -55 -12 0 -18 -7239 -6 -7425 9 -142 16 -200 42 -340 18 -99
70 -316 83 -345 5 -11 21 -56 36 -100 15 -44 43 -118 63 -165 56 -132 186
-382 203 -388 5 -2 9 -8 9 -14 0 -8 100 -161 137 -208 115 -149 356 -408 374
-403 5 2 9 -1 9 -6 0 -13 165 -151 180 -151 8 0 10 -3 7 -7 -4 -3 1 -11 12
-17 10 -6 71 -47 137 -91 65 -44 130 -86 144 -93 14 -7 43 -24 65 -37 22 -14
48 -28 57 -32 10 -3 18 -10 18 -15 0 -5 4 -7 9 -4 5 3 14 -1 21 -9 7 -8 16
-15 20 -15 4 0 37 -17 71 -38 35 -21 84 -49 109 -63 25 -13 47 -26 50 -29 3
-3 23 -14 45 -26 55 -29 388 -221 400 -231 6 -4 26 -16 45 -25 19 -10 42 -22
50 -28 44 -28 173 -100 181 -100 5 0 9 -3 9 -8 0 -4 17 -15 38 -25 20 -10 75
-40 122 -68 47 -28 110 -65 140 -82 30 -16 91 -51 135 -77 44 -26 141 -82 215
-125 128 -74 151 -87 235 -135 19 -11 51 -29 70 -40 19 -11 50 -29 69 -39 19
-11 53 -31 75 -46 23 -14 41 -22 41 -18 0 5 4 3 8 -3 4 -6 25 -21 47 -33 22
-12 58 -33 80 -47 22 -14 48 -27 58 -31 9 -3 17 -10 17 -15 0 -5 4 -7 9 -3 5
3 15 -1 23 -8 7 -7 38 -27 68 -44 57 -31 77 -43 196 -112 39 -22 76 -41 82
-41 6 0 12 -3 14 -8 3 -8 213 -132 223 -132 4 0 26 -13 50 -30 24 -16 46 -30
50 -30 3 0 30 -15 60 -34 29 -19 55 -33 57 -30 3 2 13 -5 23 -16 10 -11 22
-20 27 -20 8 0 154 -81 198 -110 8 -6 26 -16 40 -22 14 -7 31 -18 38 -25 7 -7
18 -13 24 -13 5 0 22 -8 36 -19 15 -10 47 -29 72 -43 64 -36 92 -52 310 -178
107 -62 207 -119 222 -127 15 -8 30 -19 33 -24 4 -5 11 -7 16 -4 5 4 9 1 9 -4
0 -6 5 -11 10 -11 6 0 27 -11 48 -23 20 -13 58 -35 83 -49 81 -45 94 -53 109
-64 8 -6 47 -28 85 -49 39 -21 81 -45 95 -55 14 -9 40 -23 58 -31 17 -8 32
-17 32 -21 0 -5 5 -8 10 -8 6 0 40 -18 76 -40 36 -22 68 -40 71 -40 3 0 17 -8
31 -19 15 -10 47 -29 72 -43 151 -84 236 -134 242 -143 4 -5 8 -6 8 -1 0 5 8
2 18 -6 9 -8 42 -28 72 -44 30 -16 57 -31 60 -34 3 -3 16 -11 29 -18 13 -8 40
-23 60 -34 20 -12 56 -32 81 -46 25 -14 62 -36 82 -49 21 -12 42 -23 48 -23 5
0 10 -4 10 -10 0 -5 4 -10 10 -10 5 0 44 -20 86 -45 41 -25 77 -45 79 -45 2 0
37 -20 79 -45 42 -24 76 -43 76 -40 0 2 28 -11 63 -28 57 -31 189 -88 212 -94
6 -1 47 -16 93 -32 45 -17 82 -28 82 -25 0 4 6 2 13 -4 7 -6 24 -13 37 -16 14
-3 59 -14 100 -25 41 -11 86 -22 100 -25 14 -3 36 -7 50 -11 14 -3 39 -7 55
-10 17 -2 46 -7 65 -10 144 -23 219 -28 445 -29 200 0 329 6 395 19 14 3 41 7
60 10 47 6 90 14 120 21 14 3 36 8 50 10 14 3 43 10 65 16 22 6 45 11 50 13
42 9 85 22 185 55 63 21 129 44 145 51 17 7 36 13 44 15 8 1 17 6 20 11 3 4
11 8 16 9 19 1 110 45 117 57 4 7 8 9 8 5 0 -9 124 52 128 64 2 4 10 8 17 8 7
0 50 23 95 50 45 28 85 50 90 50 5 0 13 7 18 16 5 9 12 15 15 15 18 -3 27 0
39 12 15 13 23 18 107 63 29 16 60 34 69 39 117 70 144 85 151 85 5 0 14 7 21
15 7 8 16 13 20 10 5 -3 10 -2 12 3 3 7 29 24 128 80 19 10 76 43 125 72 50
29 115 66 145 83 30 17 87 49 125 72 39 23 90 53 115 67 25 14 95 54 156 90
61 36 117 68 125 71 8 4 37 21 64 37 28 17 61 36 75 43 14 6 27 14 30 18 3 4
30 19 60 34 30 16 62 34 70 40 14 12 78 48 160 91 19 11 37 21 40 24 3 3 15
11 28 17 12 7 32 19 45 25 12 7 24 15 27 18 3 3 16 11 30 17 33 16 91 50 166
96 34 20 67 37 73 37 6 0 11 5 11 10 0 6 4 10 8 10 5 0 76 39 158 86 82 48
164 95 182 105 17 11 49 29 70 41 20 12 62 35 92 52 30 16 56 33 58 38 2 4 8
8 12 8 5 0 64 32 132 71 67 40 138 81 158 92 90 50 125 72 131 80 3 5 10 9 15
9 5 0 41 19 79 42 39 24 125 74 193 112 67 38 122 71 122 74 0 3 -17 14 -37
25 -21 11 -41 24 -45 30 -4 5 -8 6 -8 1 0 -5 -8 -2 -17 6 -10 8 -43 28 -73 44
-30 16 -57 31 -60 35 -3 3 -56 33 -117 68 -62 35 -116 67 -119 72 -3 5 -10 7
-15 4 -5 -4 -9 -1 -9 4 0 6 -4 11 -10 11 -5 0 -47 22 -93 50 -46 27 -89 50
-95 50 -7 0 -12 4 -12 8 0 4 -19 18 -42 30 -24 12 -59 32 -78 43 -19 12 -53
31 -75 42 -22 12 -42 25 -45 28 -3 3 -18 12 -35 21 -74 38 -580 333 -583 340
-2 4 -8 8 -14 8 -6 0 -43 19 -82 41 -119 69 -139 81 -196 112 -30 17 -61 37
-68 44 -7 7 -17 13 -21 13 -5 0 -62 31 -127 70 -66 38 -124 70 -131 70 -6 0
-13 4 -15 8 -2 5 -23 20 -48 34 -89 50 -127 71 -220 126 -52 31 -97 57 -100
57 -3 0 -16 8 -30 17 -14 8 -58 35 -99 58 -85 49 -56 56 -258 -62 -72 -43
-136 -78 -141 -78 -6 0 -12 -3 -14 -7 -1 -5 -16 -15 -33 -24 -16 -9 -129 -74
-250 -144 -121 -70 -238 -137 -260 -149 -22 -13 -128 -73 -235 -136 -380 -221
-460 -266 -530 -294 -19 -8 -53 -22 -75 -32 -22 -10 -42 -18 -45 -19 -3 -1
-42 -13 -87 -28 -46 -15 -93 -28 -105 -31 -39 -7 -83 -19 -92 -24 -5 -3 -21
-6 -35 -8 -37 -4 -102 -14 -131 -21 -56 -12 -416 -10 -505 4 -49 7 -103 16
-120 18 -16 3 -45 9 -63 14 -18 5 -36 10 -40 11 -65 8 -391 126 -412 149 -3 3
-30 19 -60 34 -73 36 -154 81 -160 87 -3 3 -16 11 -30 19 -148 85 -219 126
-237 137 -13 8 -26 15 -30 15 -5 1 -27 14 -50 30 -23 16 -44 29 -46 29 -3 0
-50 26 -104 58 -54 31 -119 68 -145 82 -27 14 -48 28 -48 32 0 5 -4 8 -9 8 -5
0 -38 16 -73 36 -34 20 -83 48 -108 62 -25 14 -78 45 -118 69 -41 24 -76 43
-78 43 -2 0 -23 11 -45 26 -22 14 -55 33 -72 43 -147 83 -355 203 -367 211 -8
5 -35 21 -60 35 -54 30 -62 35 -271 156 -89 51 -166 93 -171 92 -4 -2 -8 2 -8
7 0 6 -11 15 -23 19 -13 5 -53 27 -88 48 -35 22 -71 43 -79 47 -17 8 -75 42
-186 107 -44 25 -99 57 -124 71 -25 14 -101 58 -170 98 -69 40 -150 86 -180
103 -30 17 -71 41 -90 54 -19 12 -40 23 -47 23 -7 0 -13 5 -13 10 0 6 -4 10
-10 10 -5 0 -47 22 -92 49 -194 114 -400 231 -407 231 -4 0 -13 6 -19 12 -7 7
-42 29 -77 48 -35 19 -132 74 -215 123 -84 48 -157 87 -161 87 -5 0 -9 3 -9 8
0 4 -21 19 -48 32 -26 14 -49 27 -52 30 -3 3 -49 38 -103 79 -241 182 -461
449 -587 716 -95 200 -132 321 -175 560 l-24 130 2 2600 c1 1430 6 2614 10
2630 6 28 13 60 23 125 2 14 7 36 10 50 3 14 8 34 10 45 6 32 51 175 72 230
52 134 53 138 140 295 32 58 132 205 172 253 88 106 218 235 304 302 21 17 47
38 57 48 10 9 21 17 24 17 7 0 68 42 75 51 4 6 145 88 235 137 17 10 32 20 33
25 2 4 8 7 13 7 5 0 39 18 75 40 36 22 68 40 70 40 2 0 44 25 95 55 50 30 95
55 100 55 5 0 9 5 9 12 0 6 3 9 6 5 4 -3 31 9 60 28 30 19 57 35 59 35 3 0 24
12 48 27 23 15 44 28 47 28 3 0 21 10 40 22 29 17 162 94 378 219 19 10 74 43
123 72 50 28 92 52 95 52 3 0 18 8 32 19 15 10 54 33 87 51 33 18 66 39 73 48
6 9 12 12 12 8 0 -4 17 2 38 14 20 13 57 34 81 47 24 14 104 61 178 104 75 43
139 79 143 79 4 0 13 7 20 15 7 8 16 12 21 9 5 -3 9 -1 9 5 0 5 9 12 19 16 11
3 65 33 119 66 55 32 105 59 111 59 6 0 11 4 11 8 0 4 26 21 58 37 31 16 59
31 62 35 3 4 30 20 60 37 45 25 164 93 242 138 10 5 118 68 240 138 253 146
245 141 315 185 30 17 55 32 56 32 2 0 86 48 188 106 101 59 200 116 219 126
157 90 196 113 201 121 3 5 8 7 10 6 4 -3 97 49 199 111 25 15 62 33 83 41 20
7 37 17 37 21 0 4 5 8 11 8 6 0 25 6 42 14 42 18 142 56 160 61 4 2 8 3 10 5
1 1 9 3 17 5 41 10 58 15 90 25 19 6 49 14 65 17 35 6 42 8 75 17 14 3 41 8
60 11 19 2 60 8 90 12 30 4 127 7 215 8 214 0 317 -11 515 -57 7 -2 69 -22
139 -46 69 -23 131 -43 136 -45 6 -1 12 -4 15 -7 3 -3 57 -31 120 -63 63 -31
200 -107 304 -167 104 -61 191 -110 193 -110 2 0 22 -11 44 -26 22 -14 55 -33
72 -43 116 -66 284 -163 297 -171 8 -5 51 -30 95 -55 44 -25 100 -57 125 -71
25 -15 114 -66 198 -115 85 -49 158 -89 163 -89 5 0 9 -4 9 -10 0 -5 4 -10 9
-10 5 0 107 -57 227 -126 217 -126 302 -175 399 -229 28 -15 57 -34 66 -41 8
-8 21 -14 28 -14 6 0 17 -5 24 -10 20 -18 187 -115 282 -164 22 -12 42 -24 45
-27 3 -3 48 -30 100 -60 52 -30 103 -58 112 -64 23 -14 63 -36 133 -75 33 -18
67 -39 76 -46 8 -8 18 -14 21 -14 4 0 105 -57 225 -126 120 -70 236 -136 258
-148 22 -12 42 -24 45 -27 3 -3 30 -19 60 -36 30 -16 72 -40 93 -52 20 -11 52
-30 71 -40 19 -11 52 -30 73 -43 21 -13 52 -30 68 -38 17 -8 32 -17 35 -20 8
-8 169 -100 175 -100 4 0 26 -13 50 -30 24 -16 47 -30 50 -30 4 0 27 -13 52
-30 24 -16 46 -30 48 -30 21 0 217 -156 311 -247 271 -263 444 -554 545 -913
16 -57 14 -48 24 -100 5 -25 9 -47 10 -50 1 -3 5 -27 10 -55 4 -27 10 -59 14
-70 3 -11 7 -1188 8 -2615 2 -2220 0 -2608 -13 -2685 -8 -49 -17 -110 -20
-135 -3 -24 -8 -48 -10 -52 -3 -4 -13 -42 -24 -85 -11 -43 -23 -85 -27 -93 -3
-8 -7 -20 -9 -27 -10 -50 -104 -255 -154 -338 -20 -34 -39 -68 -42 -75 -17
-45 -203 -277 -284 -355 -105 -101 -114 -108 -294 -243 -27 -20 -93 -59 -257
-153 -21 -12 -51 -30 -68 -40 -16 -10 -41 -24 -55 -32 -35 -20 -78 -44 -226
-129 -71 -42 -205 -119 -299 -173 -93 -54 -208 -120 -254 -147 -46 -26 -88
-48 -92 -48 -5 0 -9 -4 -9 -9 0 -5 -9 -13 -21 -16 -11 -4 -55 -27 -97 -52 -42
-25 -97 -57 -122 -71 -84 -47 -85 -48 -58 -65 106 -65 181 -107 193 -107 7 0
15 -4 17 -8 3 -7 132 -85 268 -160 25 -13 50 -28 55 -32 6 -4 30 -19 55 -32
25 -14 116 -66 203 -117 86 -50 162 -91 167 -91 6 0 10 -4 10 -9 0 -5 12 -14
28 -20 15 -7 45 -23 67 -36 40 -24 49 -29 140 -80 28 -15 55 -31 60 -35 26
-19 416 -240 424 -240 5 0 11 -4 13 -8 2 -5 35 -26 73 -47 70 -38 206 -117
235 -135 8 -6 26 -15 40 -22 14 -7 32 -17 40 -24 8 -6 42 -26 75 -44 33 -18
70 -40 83 -48 12 -8 22 -10 22 -6 0 5 4 4 8 -3 7 -11 214 -135 362 -216 30
-17 72 -41 93 -54 l37 -23 50 25 c28 14 60 35 70 45 11 11 22 20 25 20 3 0 9
0 14 0 5 0 16 6 23 12 8 7 40 26 73 43 81 40 178 97 187 110 4 5 8 6 8 2 0 -5
12 0 28 11 15 11 45 29 67 41 22 11 58 32 80 45 22 14 62 37 89 51 82 45 91
50 96 56 3 4 29 19 58 34 28 15 52 32 52 38 0 6 3 7 6 4 7 -7 97 42 102 55 2
4 12 8 22 8 10 0 21 7 24 16 3 8 10 12 16 9 5 -3 10 -1 10 4 0 6 5 11 10 11
13 0 174 110 178 122 2 4 10 8 18 8 8 0 14 3 14 8 0 4 16 18 35 31 19 13 45
33 58 45 13 11 39 35 59 51 44 38 158 143 158 147 0 2 32 36 71 77 39 40 98
108 131 150 33 42 66 85 75 95 29 35 161 240 194 301 61 113 126 250 161 340
19 50 39 99 43 110 5 11 9 22 10 25 0 3 11 38 23 77 12 40 23 75 23 78 0 2 6
23 14 46 8 22 14 43 14 47 -1 4 0 10 1 15 1 4 4 12 5 17 1 6 3 11 5 13 2 3 8
33 14 77 3 19 6 35 7 35 1 0 3 9 4 20 2 11 5 34 8 50 12 67 20 122 23 160 2
22 7 69 10 105 8 74 8 7291 0 7390 -7 96 -16 182 -22 210 -3 14 -7 37 -9 52
-10 69 -26 154 -32 168 -3 8 -7 25 -9 37 -6 45 -66 248 -94 318 -8 19 -21 55
-25 65 -7 20 -21 54 -46 108 -15 34 -26 62 -23 62 3 0 -4 14 -16 30 -12 17
-19 30 -16 30 4 0 -5 18 -19 40 -14 22 -25 42 -25 44 0 20 -178 302 -217 344
-13 14 -23 31 -23 38 0 7 -3 14 -8 16 -4 2 -36 39 -72 83 -77 97 -358 377
-370 370 -5 -3 -11 4 -15 15 -3 11 -11 20 -17 20 -9 0 -47 29 -98 74 -22 19
-119 86 -125 86 -3 0 -15 9 -27 20 -12 11 -28 20 -35 20 -7 0 -13 5 -13 10 0
6 -5 10 -10 10 -6 0 -37 16 -68 37 -31 20 -63 36 -69 36 -7 0 -13 3 -13 6 0 4
-17 15 -37 26 -21 11 -40 22 -43 26 -3 3 -34 21 -70 40 -36 18 -67 36 -70 39
-3 4 -12 9 -20 13 -8 4 -37 20 -65 37 -27 17 -66 38 -85 48 -19 9 -39 21 -45
25 -21 17 -175 105 -175 100 0 -3 -7 1 -16 8 -9 7 -24 18 -35 24 -10 5 -73 42
-140 80 -67 39 -133 77 -148 85 -14 8 -42 25 -61 36 -19 12 -55 33 -80 47 -25
13 -72 41 -105 60 -96 58 -159 91 -167 89 -5 -1 -8 2 -8 7 0 10 -70 46 -82 43
-5 -1 -8 3 -8 8 0 6 -17 19 -37 28 -21 10 -57 30 -80 45 -24 15 -47 27 -53 27
-5 0 -10 5 -10 10 0 6 -6 10 -13 10 -7 0 -29 11 -50 25 -20 14 -37 22 -37 18
0 -4 -4 -3 -8 2 -9 13 -218 135 -231 135 -4 0 -14 7 -21 15 -7 9 -15 13 -17
11 -3 -3 -14 4 -26 14 -11 11 -24 17 -29 14 -4 -3 -8 -1 -8 4 0 5 -17 18 -37
27 -21 10 -46 24 -55 33 -10 8 -18 11 -18 6 0 -5 -4 -4 -8 1 -4 6 -18 16 -32
24 -14 8 -78 45 -143 83 -66 37 -123 68 -128 68 -5 0 -9 4 -9 9 0 5 -15 14
-32 21 -18 8 -40 19 -48 25 -8 7 -35 24 -60 37 -60 34 -105 59 -168 97 -29 17
-57 31 -62 31 -6 0 -10 5 -10 10 0 6 -4 10 -9 10 -5 0 -80 41 -166 90 -86 50
-161 90 -166 90 -5 0 -9 3 -9 8 0 4 -26 20 -58 36 -31 17 -76 42 -98 58 -23
15 -44 24 -48 21 -3 -4 -6 -1 -6 5 0 7 -7 12 -15 12 -8 0 -15 5 -15 11 0 6 -7
8 -17 5 -10 -4 -14 -4 -10 0 4 4 -7 16 -24 26 -17 11 -33 17 -36 15 -2 -3 -16
6 -30 19 -14 13 -29 21 -34 18 -5 -3 -9 -1 -9 4 0 9 -37 25 -52 23 -5 -1 -8 3
-8 8 0 5 -51 37 -112 72 -62 34 -121 69 -130 77 -10 8 -18 11 -18 6 0 -5 -4
-4 -8 2 -4 6 -33 26 -66 43 -32 18 -81 46 -108 62 -27 16 -53 29 -58 29 -6 0
-10 5 -10 10 0 6 -4 10 -9 10 -5 0 -42 19 -83 43 -40 24 -80 47 -88 51 -8 4
-24 12 -35 19 -46 28 -90 51 -97 49 -5 -1 -8 3 -8 8 0 6 -12 16 -27 22 -16 7
-56 29 -91 50 -34 21 -66 38 -71 38 -5 0 -11 4 -13 9 -1 5 -10 11 -18 13 -8 2
-17 5 -20 9 -14 15 -78 48 -83 42 -4 -3 -7 -2 -7 4 0 6 -17 20 -37 30 -57 29
-107 57 -113 63 -3 3 -16 11 -29 18 -61 35 -90 51 -139 81 -29 17 -54 31 -56
31 -2 0 -35 18 -72 40 -209 123 -416 240 -425 240 -5 0 -9 5 -9 10 0 6 -4 10
-10 10 -5 0 -34 16 -65 35 -30 20 -58 36 -62 37 -5 0 -25 12 -45 24 -21 13
-42 24 -48 24 -5 0 -10 3 -10 8 0 8 -49 32 -64 31 -5 0 -12 4 -15 10 -8 12
-248 128 -276 133 -11 1 -23 7 -26 11 -3 5 -12 10 -20 11 -14 3 -39 12 -74 26
-37 15 -60 23 -80 27 -31 7 -38 9 -66 21 -15 6 -44 14 -65 18 -48 10 -46 9
-65 18 -9 4 -29 8 -45 10 -16 2 -29 5 -29 6 0 1 -9 4 -20 6 -11 2 -31 6 -45 8
-37 8 -92 17 -120 21 -14 2 -41 6 -60 9 -19 4 -57 9 -85 12 -56 7 -522 14
-527 9z"/>
<path d="M9975 15503 c-49 -7 -97 -17 -105 -20 -8 -3 -20 -7 -26 -8 -9 -2 -84
-25 -134 -40 -3 -1 -18 -7 -35 -14 -16 -6 -43 -17 -60 -23 -28 -11 -125 -61
-190 -98 -16 -10 -101 -59 -189 -109 -87 -50 -162 -91 -166 -91 -5 0 -10 -4
-12 -8 -1 -4 -34 -25 -73 -47 -38 -21 -73 -43 -77 -49 -4 -6 -8 -8 -8 -4 0 4
-45 -20 -100 -53 -55 -32 -105 -59 -110 -59 -6 0 -10 -4 -10 -10 0 -5 -6 -10
-13 -10 -7 0 -28 -11 -47 -23 -19 -13 -55 -35 -80 -49 -25 -14 -63 -35 -85
-48 -22 -13 -65 -36 -95 -53 -30 -16 -61 -34 -68 -40 -13 -10 -43 -28 -135
-79 -71 -40 -92 -52 -182 -105 -99 -58 -148 -86 -240 -138 -44 -25 -87 -50
-95 -55 -24 -15 -141 -82 -245 -141 -33 -18 -61 -37 -63 -41 -2 -4 -8 -8 -13
-8 -6 0 -49 -23 -97 -51 -48 -29 -105 -62 -127 -74 -120 -67 -210 -120 -213
-127 -2 -4 -12 -8 -23 -8 -10 0 -19 -4 -19 -9 0 -5 -14 -14 -31 -21 -17 -7
-57 -30 -90 -51 -32 -21 -59 -36 -59 -32 0 3 -8 -1 -17 -9 -18 -14 -60 -39
-158 -93 -27 -15 -57 -34 -66 -41 -8 -8 -19 -14 -22 -14 -10 0 -225 -128 -267
-159 -60 -43 -163 -133 -218 -191 -59 -61 -172 -204 -172 -218 0 -4 -8 -17
-17 -28 -10 -10 -25 -32 -33 -49 -8 -16 -19 -37 -26 -45 -17 -23 -89 -197
-113 -274 -20 -66 -26 -86 -36 -143 -3 -16 -7 -38 -10 -50 -3 -12 -8 -53 -12
-90 -10 -94 -9 -3975 1 -4043 4 -30 12 -75 17 -100 5 -25 12 -56 14 -70 22
-106 148 -409 189 -454 6 -6 31 -41 55 -76 25 -36 56 -78 70 -95 34 -40 168
-173 209 -208 33 -28 207 -147 215 -147 3 0 54 -29 115 -65 60 -36 114 -65
120 -65 6 0 12 -3 14 -8 2 -6 187 -114 408 -239 19 -11 59 -34 88 -52 29 -17
55 -31 57 -31 2 0 40 -22 85 -50 45 -27 83 -50 84 -50 2 0 53 -29 114 -64 61
-36 131 -76 154 -89 24 -13 115 -66 203 -117 88 -51 180 -104 205 -118 25 -14
86 -48 135 -77 50 -29 106 -62 125 -73 49 -27 212 -121 230 -132 8 -6 32 -19
52 -30 21 -11 98 -56 173 -100 75 -44 138 -80 141 -80 3 0 25 -14 50 -30 24
-17 44 -28 44 -24 0 4 8 0 18 -9 9 -8 42 -29 72 -45 30 -17 109 -63 175 -101
66 -39 132 -76 148 -82 15 -6 27 -15 27 -20 0 -5 4 -9 9 -9 5 0 53 -25 106
-56 102 -58 165 -89 178 -86 4 1 7 -2 7 -8 0 -5 4 -10 9 -10 5 0 22 -5 38 -12
15 -6 30 -12 33 -13 3 -1 43 -13 90 -28 88 -27 140 -40 225 -53 61 -10 383
-12 445 -2 212 32 408 105 615 228 50 29 115 67 145 83 30 17 67 38 82 49 14
10 28 18 31 18 10 0 132 74 135 82 2 5 9 8 15 8 7 0 39 16 72 36 33 20 78 47
100 59 22 12 121 69 220 126 99 58 187 108 195 112 8 4 31 17 50 28 77 46 368
214 600 347 135 77 253 147 263 156 9 9 17 13 17 10 0 -3 17 4 38 17 112 67
345 199 353 199 4 0 12 6 16 13 4 6 28 22 53 35 50 25 66 34 190 107 47 27 88
54 92 60 4 5 8 7 8 3 0 -7 244 132 267 152 7 5 15 10 18 10 7 0 218 121 225
129 3 3 17 13 32 21 79 44 276 224 348 316 8 10 29 37 46 59 91 118 205 354
239 495 1 3 7 24 14 48 6 24 14 59 17 79 2 19 6 39 9 43 2 4 8 54 11 111 7
103 13 3818 7 3831 -2 4 -5 51 -7 105 -4 102 -24 218 -53 313 -9 30 -17 58
-17 62 -1 3 -4 10 -8 14 -5 4 -8 13 -8 19 0 7 -8 30 -17 51 -20 47 -19 44 -28
72 -4 12 -11 22 -16 22 -5 0 -9 3 -8 8 2 15 -14 52 -23 52 -5 0 -6 5 -3 10 3
6 1 10 -6 10 -7 0 -10 3 -6 6 6 6 -48 93 -66 105 -5 3 -8 10 -7 14 1 4 -7 18
-19 31 -12 13 -21 27 -21 30 0 4 -10 15 -22 25 -11 11 -18 19 -15 19 4 0 -13
21 -38 46 -25 25 -45 49 -45 55 0 5 -7 9 -16 9 -9 0 -18 9 -21 20 -3 11 -9 20
-14 20 -5 0 -28 18 -51 40 -24 22 -46 40 -50 40 -5 0 -17 8 -27 18 -42 37
-174 122 -191 122 -5 0 -10 3 -10 8 0 4 -15 13 -32 21 -18 8 -35 17 -38 20 -3
3 -18 13 -35 22 -16 9 -93 53 -170 97 -77 44 -143 80 -146 79 -3 -1 -13 6 -23
16 -10 9 -24 17 -32 17 -8 0 -14 4 -14 9 0 5 -8 12 -17 15 -10 4 -36 18 -58
31 -22 14 -52 31 -67 37 -16 7 -28 16 -28 20 0 4 -4 8 -10 8 -5 0 -33 14 -62
31 -73 43 -116 68 -161 91 -20 11 -40 24 -43 29 -3 5 -10 7 -15 4 -5 -4 -9 -2
-9 3 0 5 -18 17 -40 28 -22 10 -40 22 -40 27 0 4 -5 7 -10 7 -6 0 -28 11 -49
24 -21 14 -42 22 -45 19 -3 -4 -6 -2 -6 3 0 6 -22 21 -50 35 -27 13 -50 27
-50 32 0 4 -5 7 -11 7 -6 0 -24 9 -40 21 -16 11 -29 17 -29 12 0 -4 -5 0 -11
10 -5 9 -16 17 -23 17 -7 0 -30 11 -50 25 -20 13 -36 21 -36 17 0 -4 -4 -2 -8
3 -9 13 -123 81 -151 90 -12 3 -21 11 -21 16 0 6 -4 7 -10 4 -5 -3 -10 -1 -10
4 0 6 -5 11 -12 11 -6 0 -19 6 -27 14 -9 8 -23 16 -31 18 -8 2 -17 5 -20 8
-10 11 -201 120 -211 120 -5 0 -9 5 -9 12 0 6 -3 8 -6 5 -4 -3 -18 2 -32 13
-13 11 -29 17 -36 13 -6 -3 -8 -2 -3 2 7 8 -22 27 -113 72 -19 10 -41 24 -48
31 -7 6 -18 12 -24 12 -6 0 -19 6 -27 14 -15 12 -108 66 -158 90 -13 6 -23 14
-23 19 0 4 -6 7 -13 7 -7 0 -29 11 -48 25 -20 13 -39 21 -43 18 -3 -4 -6 -2
-6 4 0 5 -25 22 -55 38 -31 15 -58 31 -61 36 -2 5 -24 17 -47 28 -41 20 -105
56 -151 86 -12 8 -26 12 -29 8 -4 -3 -7 -1 -7 5 0 6 -28 26 -62 45 -114 61
-133 72 -138 78 -3 3 -20 11 -37 18 -18 8 -33 17 -33 21 0 9 -61 36 -72 32 -5
-1 -8 2 -8 7 0 7 -187 87 -228 96 -9 3 -51 13 -92 24 -41 10 -82 19 -90 19 -8
0 -26 4 -40 7 -51 14 -393 13 -485 -2z"/>
</g>
</svg>
