<svg xmlns="http://www.w3.org/2000/svg" version="1.0" width="100%" height="100%" viewBox="0 0 2048 2048" preserveAspectRatio="xMidYMid meet">
<g transform="translate(0,2048) scale(0.1,-0.1)" fill="currentColor" stroke="none">
<path d="M9965 20180 c-343 -35 -684 -129 -980 -269 -66 -32 -473 -261 -905 -510 -432 -250 -891 -514 -1020 -589 -129 -74 -361 -208 -515 -297 -154 -89 -545 -315 -870 -502 -733 -423 -1978 -1141 -2145 -1238 -69 -40 -291 -168 -495 -285 -203 -117 -417 -245 -475 -283 -566 -376 -995 -965 -1180 -1619 -48 -167 -84 -356 -100 -518 -8 -84 -10 -1126 -8 -3840 4 -4133 -3 -3737 67 -4055 161 -730 623 -1394 1251 -1796 69 -45 395 -236 725 -426 835 -480 939 -540 1030 -593 44 -26 220 -127 390 -225 337 -194 903 -520 1415 -815 179 -103 370 -213 425 -245 55 -32 413 -238 795 -458 382 -220 794 -458 915 -527 121 -70 294 -170 385 -222 263 -152 413 -223 625 -295 728 -247 1544 -192 2220 147 83 42 796 449 1585 904 789 456 1568 905 1730 999 162 93 310 180 330 193 19 12 94 55 165 96 168 94 171 96 165 101 -3 2 -129 75 -280 162 -151 87 -583 336 -960 553 -1273 734 -1549 892 -1555 892 -3 0 -79 -42 -168 -94 -780 -451 -1354 -779 -1412 -808 -168 -84 -370 -148 -580 -185 -138 -24 -470 -23 -610 0 -205 35 -415 102 -580 185 -38 19 -142 76 -230 127 -88 51 -326 188 -529 304 -203 117 -619 357 -925 533 -484 280 -1303 751 -2026 1168 -577 332 -673 389 -772 464 -438 329 -722 832 -782 1388 -15 131 -15 5075 -1 5203 42 373 182 724 409 1020 63 83 222 246 306 314 152 124 80 81 1425 856 399 230 840 484 980 565 233 134 1516 875 1910 1102 209 121 268 150 405 203 127 49 267 87 410 112 138 24 470 23 610 -1 211 -36 410 -99 580 -184 72 -35 399 -223 1820 -1042 446 -257 959 -553 1140 -657 1438 -828 1397 -803 1505 -884 124 -91 231 -191 326 -302 236 -276 377 -572 457 -959 l21 -103 4 -2560 c3 -2663 3 -2671 -39 -2879 -102 -506 -425 -982 -854 -1261 -44 -29 -327 -195 -630 -370 -302 -174 -637 -367 -742 -428 -148 -85 -190 -114 -180 -123 6 -6 363 -213 792 -460 429 -246 850 -488 935 -537 85 -49 351 -202 590 -340 239 -138 442 -255 451 -260 11 -7 34 2 90 36 41 24 121 71 179 102 58 32 146 82 195 110 50 29 209 122 355 206 321 185 373 218 520 328 138 103 416 376 520 511 285 370 476 784 565 1225 58 289 55 39 55 4065 0 3261 -2 3710 -15 3820 -82 668 -373 1263 -844 1730 -141 140 -281 254 -436 357 -49 33 -580 343 -1180 688 -1488 857 -1960 1129 -2300 1325 -692 399 -1166 672 -1530 882 -1435 826 -1375 793 -1593 879 -207 81 -400 132 -647 170 -149 24 -529 34 -680 19z"/>
<path d="M9959 15500 c-133 -24 -299 -77 -409 -133 -47 -24 -233 -129 -415 -234 -181 -105 -577 -333 -880 -508 -598 -344 -769 -443 -945 -545 -132 -77 -479 -277 -820 -473 -309 -178 -357 -208 -459 -295 -276 -234 -464 -562 -527 -922 -18 -100 -19 -198 -19 -2095 0 -1566 3 -2006 13 -2065 59 -351 200 -630 436 -866 157 -156 142 -147 1016 -649 151 -87 493 -284 760 -438 267 -154 604 -348 750 -432 146 -84 442 -255 659 -380 216 -124 427 -242 468 -261 379 -172 843 -179 1227 -18 90 38 237 121 1316 744 327 189 667 385 755 435 88 51 322 186 520 300 198 114 450 260 560 323 300 173 329 191 418 263 294 236 494 576 557 945 20 117 21 149 20 2110 0 1748 -2 2001 -15 2080 -83 481 -340 849 -765 1096 -52 30 -241 140 -420 243 -179 104 -431 250 -560 325 -129 76 -473 274 -765 440 -291 167 -744 427 -1005 578 -507 294 -584 334 -731 382 -214 70 -510 90 -740 50z"/>
</g>
</svg>